HIERARCHY
ROOT Hips
{
    OFFSET 12.943675994873047 94.44121932983398 -18.4002685546875
    CHANNELS 6 Xposition Yposition Zposition Zrotation Xrotation Yrotation
    JOINT RightUpLeg
    {
        OFFSET -12.943675994873047 0.0 0.0
        CHANNELS 3 Zrotation Xrotation Yrotation
        JOINT RightLeg
        {
            OFFSET 0.0 -48.440555572509766 0.0
            CHANNELS 3 Zrotation Xrotation Yrotation
            JOINT RightFoot
            {
                OFFSET 0.0 -46.00066375732422 0.0
                CHANNELS 3 Zrotation Xrotation Yrotation
                End Site
                {
                    OFFSET 0.0 0.0 18.4002685546875
                }
            }
        }
    }
    JOINT LeftUpLeg
    {
        OFFSET 12.943675994873047 0.0 0.0
        CHANNELS 3 Zrotation Xrotation Yrotation
        JOINT LeftLeg
        {
            OFFSET 0.0 -48.440555572509766 0.0
            CHANNELS 3 Zrotation Xrotation Yrotation
            JOINT LeftFoot
            {
                OFFSET 0.0 -46.00066375732422 0.0
                CHANNELS 3 Zrotation Xrotation Yrotation
                End Site
                {
                    OFFSET 0.0 0.0 18.4002685546875
                }
            }
        }
    }
    JOINT Spine
    {
        OFFSET 0.0 25.66778564453125 0.0
        CHANNELS 3 Zrotation Xrotation Yrotation
        JOINT Spine3
        {
            OFFSET 0.0 25.491708755493164 0.0
            CHANNELS 3 Zrotation Xrotation Yrotation
            JOINT Neck
            {
                OFFSET 0.0 11.417024612426758 0.0
                CHANNELS 3 Zrotation Xrotation Yrotation
                End Site
                {
                    OFFSET 0.0 4.566810131072998 0.0
                }
            }
            JOINT LeftArm
            {
                OFFSET 13.65008544921875 0.0 0.0
                CHANNELS 3 Zrotation Xrotation Yrotation
                JOINT LeftForeArm
                {
                    OFFSET 28.714542388916016 0.0 0.0
                    CHANNELS 3 Zrotation Xrotation Yrotation
                    JOINT LeftHand
                    {
                        OFFSET 20.681278228759766 0.0 0.0
                        CHANNELS 3 Zrotation Xrotation Yrotation
                        End Site
                        {
                            OFFSET 8.272512435913086 0.0 0.0
                        }
                    }
                }
            }
            JOINT RightArm
            {
                OFFSET -13.65008544921875 0.0 0.0
                CHANNELS 3 Zrotation Xrotation Yrotation
                JOINT RightForeArm
                {
                    OFFSET -28.714542388916016 0.0 0.0
                    CHANNELS 3 Zrotation Xrotation Yrotation
                    JOINT RightHand
                    {
                        OFFSET -20.681278228759766 0.0 0.0
                        CHANNELS 3 Zrotation Xrotation Yrotation
                        End Site
                        {
                            OFFSET -8.272512435913086 0.0 0.0
                        }
                    }
                }
            }
        }
    }
}
MOTION
Frames: 10
Frame Time: 0.03333333333333333
-0.00024238842888735235 95.82850646972656 -0.0007211887277662754 -5.643835248872475 -14.7054707849159 -15.83917106839457 1.3591842188475105 21.437954311829888 -1.9014778452842096 -6.853314446663215 12.61332797167273 0.4433381933580338 -7.951386703658792e-16 3.1805546814635168e-15 1.987846675914698e-16 -1.90298535914195 25.849295981238292 -0.8463313934763549 -2.967394838822508 3.436422682260038 0.07288865027731287 3.6638870638111666e-32 1.6896696745274934e-15 -2.4848083448933726e-15 13.21121595396192 29.075084761161687 -8.475612145935925 -6.957991909295785e-07 3.8277002935762115e-07 -6.0358890983924125 -4.4971641495461965 -6.562929079330382 -171.0476587209477 116.06049813525544 -45.54394137332721 -162.9083704056958 -1.4790601261220992e-07 4.740643512245931e-06 31.429564832179114 0.0 0.0 0.0 -116.18941726444626 -26.33526736472455 171.97788320931917 1.4433100285636216e-06 2.121978062916372e-06 -25.634616825316638 2.7332891793827097e-15 0.0 0.0
-0.00026126994634978473 95.82856750488281 -0.0007515009492635727 -5.517527332868042 -14.601074524655358 -16.015008664689102 1.376536721311482 21.351347292368647 -1.8952378829521888 -7.166027023654918 12.58161899447491 0.5092300773338844 1.034509288605506e-33 -9.93923337957349e-17 1.1927080055488188e-15 -1.7618812977997362 25.41881819124409 -0.8878350920854726 -3.191802702770455 3.5354554695574136 0.08135109300496167 -9.655420026984722e-33 -1.5902773407317582e-15 -6.957463365701442e-16 12.757611389230556 29.064135485266757 -8.230003154672564 1.842707010519187e-07 -8.01317540179692e-07 -5.756992322301384 -4.870493551972354 -6.580519133208243 -171.49613476289224 116.52107409185467 -46.113240469886264 -162.5586047270012 -4.197338244109846e-07 -2.8250027999081976e-07 31.621529765227827 0.0 0.0 6.3611093629270335e-15 -116.17480619934892 -25.952462798255638 172.1054559344512 2.0882789294516635e-07 9.253539209894595e-07 -25.62212251334484 5.963540027744094e-16 0.0 0.0
-0.00025709668989293277 95.82864379882812 -0.0007772716344334185 -5.449821285478529 -14.635590668727353 -16.12759207795755 1.7848317417388844 21.715583005369126 -2.114450249377097 -7.797263612223548 12.03956790862643 0.5240291192073396 7.758819664541295e-34 -9.939233379573492e-17 8.945310041616142e-16 -1.5934179514106686 25.14187486878771 -0.9919444931621062 -3.3512796708379082 3.611583727809545 0.077701412460343 0.0 0.0 -3.975693351829396e-16 12.382717184658011 29.183253873220625 -8.116228013719981 2.4735532880259794e-08 3.051469639975937e-07 -5.675942542652144 -5.263056480652797 -6.314402669892431 -171.86594048927776 117.26311291865895 -46.93756942833185 -162.08309095239866 1.7366314684103343e-06 -6.074020397881572e-06 32.37565192003168 6.3611093629270335e-15 0.0 0.0 -115.84084891274395 -24.769848287962365 172.31282143000567 -1.4557013323634433e-07 -1.403418736896199e-07 -25.51270993549968 -4.025389518727263e-15 0.0 0.0
-0.00029730962705798447 95.82864379882812 -0.0007983824471011758 -5.817373389232364 -14.459270037066572 -16.617662274686687 2.2965937055691055 21.651431682217098 -2.2106125291384675 -8.053656168206793 11.956193050964128 0.5202946178443704 7.951386703658792e-16 -3.4483642953516864e-33 -4.969616689786745e-16 -1.008508707381028 24.99916509776139 -1.1336872844180412 -3.742029543548209 3.7836544887561874 0.08625333442755741 7.951386703658792e-16 -1.4908850069360234e-15 -1.1927080055488188e-15 12.339399752273229 29.207159651128233 -7.97656471146411 4.102909607115162e-07 -1.5914797259839981e-06 -5.708640899615452 -5.227394096935062 -6.263566524796788 -171.48613307863567 117.37167359652952 -47.12676647850382 -161.67375441609224 -3.847610785370343e-06 -1.419226071366708e-06 33.3488647568379 0.0 0.0 6.3611093629270335e-15 -115.47973971139831 -23.242124770460354 172.55142814256496 -4.7654967299737565e-06 -4.6893342632584144e-07 -25.20821386256668 4.969616689786744e-16 0.0 0.0
-0.000302383879898116 95.82859802246094 -0.0007960370276123285 -6.169046655749396 -14.398292093013445 -16.99576338868523 2.9921498110631664 21.77782215550787 -2.3982541506090502 -8.389272544203276 11.659719638589001 0.4885967210421511 1.034509288605506e-33 -9.93923337957349e-17 1.1927080055488188e-15 -0.5397567342563272 25.06386424423448 -1.2386625153315334 -3.9707905689245826 3.966458237106581 0.09124106377249169 1.7241821476758432e-33 -9.939233379573489e-17 1.9878466759146976e-15 12.44109443111087 29.450778618530418 -7.970629764822211 -4.926790540571592e-07 1.362993117403954e-07 -5.667705242110634 -5.218219183770868 -6.331238595063493 -170.18453496902754 117.52803177594765 -47.406698020298236 -161.16503017474466 -2.8938809491115044e-06 -6.208041773330505e-08 34.52834983040819 0.0 0.0 0.0 -115.85805086551426 -22.896983399023128 172.45922907867245 3.2996044172739445e-07 -2.415733048040291e-06 -24.96014078065374 -3.578124016646457e-15 -1.5902773407317588e-15 -1.5902773407317588e-15
-0.0003243094542995095 95.82855224609375 -0.000804223062004894 -6.565913689105163 -14.284436892405509 -17.385487334663754 3.55679490869133 21.89484992029994 -2.518497744551203 -8.239285514568417 11.34045335122742 0.39453054685168626 1.1034765745125397e-32 -3.1805546814635164e-15 3.9756933518293955e-16 -0.03302015734092435 25.014162426619286 -1.3330924626408656 -4.111569496461824 4.1226319472480135 0.09000886594983096 7.951386703658791e-16 1.4908850069360234e-15 2.1866313435061676e-15 12.374802040258217 29.61645477039944 -7.830541239826301 2.5531318708635945e-07 -3.099813494738176e-07 -5.745249826935494 -5.106083799572035 -6.277525948295528 -170.27504638866102 117.35597526471427 -47.46450360821553 -160.88570067368383 7.2271152371962905e-06 -7.503959577293244e-06 35.79563228653225 -6.3611093629270335e-15 6.3611093629270335e-15 3.531125038440127e-31 -116.10095167579296 -22.86033992977769 172.28136160180142 -3.445179291864369e-06 1.1636551585025982e-06 -24.772442956831497 1.4908850069360238e-15 7.951386703658794e-16 -1.0345092886055059e-32
-0.0003327262820675969 95.82854461669922 -0.0008281223708763719 -6.911354919762925 -14.157728813804694 -17.682741323816604 4.277082528774703 22.056378821351355 -2.72723317471702 -8.515382691901372 10.685812682521844 0.338227225969226 0.0 0.0 -2.9817700138720465e-16 0.5402437255167464 24.95774585138028 -1.4808052374062866 -3.6686455818856434 4.303946908621062 0.036412476372439516 0.0 0.0 1.2921003393445538e-15 11.950651161515149 29.721260984213 -7.519749843387573 -3.2915127414210457e-07 1.1708765084080468e-07 -5.763596985204085 -4.518760809496934 -6.072113127626234 -170.04635293300103 117.31649048149951 -47.47231444088276 -161.17261903768903 3.459664001273981e-06 -5.898952917060445e-06 36.17248671768743 3.1805546814635168e-15 -6.3611093629270335e-15 1.7655625192200634e-31 -116.65494869458713 -24.390876901703475 172.04036698226096 -3.6601008997598105e-06 3.3971819128101945e-06 -24.783995713488075 -8.945310041616139e-15 -7.951386703658791e-16 -6.207055731633035e-32
-0.00030124912154860795 95.82849884033203 -0.00080755545059219 -7.220382879136897 -14.062379534621877 -18.11268903915916 4.6428864418227604 22.323402799355296 -2.8909767764712218 -8.181356991995138 10.03297632172082 0.2063745515007499 7.951386703658794e-16 -2.758691436281349e-33 -3.975693351829397e-16 0.9773977294833309 25.00636772038005 -1.6595854556597907 -3.2845444094478475 4.287373030737122 -0.020449896336047352 -1.3103784322336408e-32 -1.5902773407317584e-15 -9.442271710594815e-16 11.393720618877575 29.833364727397857 -7.242695259280234 1.3392385376400638e-07 3.3817354891345555e-07 -5.632482110376716 -4.360623681756691 -5.938635340167429 -169.93453097640742 117.647759875679 -47.634378651161214 -161.40457601676084 2.6990987112315384e-06 -2.7321076731420875e-06 36.7323157971014 3.1805546814635168e-15 0.0 0.0 -116.32544348072568 -24.13494796934749 172.25090833053227 -2.247910613840213e-06 9.356077363628848e-07 -24.159850405167845 -4.721135855297407e-15 -7.95138670365879e-16 -3.275946080584102e-32
-0.0002841565292328596 95.82844543457031 -0.000804394599981606 -7.5326541044695725 -13.95778726734696 -18.764470353778826 4.694058837723037 22.564324968665854 -2.969019714668722 -7.586761997279053 9.447370981592996 0.07994906441585219 7.951386703658792e-16 -3.0811623476677818e-15 -1.0933156717530838e-15 1.2734450478402823 25.10575945901012 -1.82303466460427 -2.5964949793102647 4.050844652604151 -0.09133353051290982 3.975693351829396e-16 4.9696166897867443e-17 -1.3914926731402886e-15 10.591473704530005 29.914836674060986 -6.880255300639704 5.580838757574187e-07 -3.6503741976508304e-07 -5.558298890544393 -4.139265976627464 -5.879129438054614 -170.14224338450225 117.14116170646048 -47.17223166270577 -162.2545488785181 2.9522416425604524e-06 -6.098780957429414e-06 36.46623866670937 3.1805546814635168e-15 -6.3611093629270335e-15 6.3611093629270335e-15 -116.33830507447487 -24.857400543704255 172.465767643916 1.5653271441712826e-06 -2.8701930384214108e-06 -23.5091608755605 3.528427849748588e-15 0.0 0.0
-0.0002658150624483824 95.82831573486328 -0.0007775606936775148 -8.02223086385978 -13.871210615760768 -19.463714662433684 5.060009825306361 23.119196257648518 -3.1392095978515524 -6.863952883243281 8.899437448566484 -0.06806336166450237 7.951386703658792e-16 -3.1308585145656493e-15 2.4848083448933725e-16 1.52989427226537 25.002465229440897 -1.8769429243929048 -1.8433114602486749 3.834531153047914 -0.14580009725238144 -3.975693351829396e-16 -5.948428409481659e-33 1.714517757976427e-15 9.99709667409935 30.151718429294142 -6.55959857656658 8.057752056484002e-07 2.1787029436438877e-07 -5.439003115070167 -3.653399855461999 -6.156251885602238 -170.5963459627875 116.40095718473476 -46.53973481562064 -163.19373429751093 -5.103854163313757e-06 -7.284751703047154e-07 35.286691347588594 3.1805546814635168e-15 -6.3611093629270335e-15 1.7655625192200634e-31 -116.08474359891545 -24.48028281319384 172.6252535918461 -2.051015934401383e-06 -1.6023844177633772e-07 -22.86013446646882 7.951386703658792e-16 7.951386703658792e-16 -7.951386703658792e-16
